  0
SECTION
  2
HEADER
  9
$ACADVER
  1
AC1014
  9
$HANDSEED
  5
FFFF
  9
$MEASUREMENT
 70
     1
  0
ENDSEC
  0
SECTION
  2
TABLES
  0
TABLE
  2
VPORT
  5
8
330
0
100
AcDbSymbolTable
 70
     4
  0
VPORT
  5
2E
330
8
100
AcDbSymbolTableRecord
100
AcDbViewportTableRecord
  2
*ACTIVE
 70
     0
 10
0.0
 20
0.0
 11
1.0
 21
1.0
 12
210.0
 22
148.5
 13
0.0
 23
0.0
 14
10.0
 24
10.0
 15
10.0
 25
10.0
 16
0.0
 26
0.0
 36
1.0
 17
0.0
 27
0.0
 37
0.0
 40
341.0
 41
1.24
 42
50.0
 43
0.0
 44
0.0
 50
0.0
 51
0.0
 71
     0
 72
   100
 73
     1
 74
     3
 75
     0
 76
     0
 77
     0
 78
     0
  0
ENDTAB
  0
TABLE
  2
LTYPE
  5
5
330
0
100
AcDbSymbolTable
 70
     1
  0
LTYPE
  5
14
330
5
100
AcDbSymbolTableRecord
100
AcDbLinetypeTableRecord
  2
BYBLOCK
 70
     0
  3

 72
    65
 73
     0
 40
0.0
  0
LTYPE
  5
15
330
5
100
AcDbSymbolTableRecord
100
AcDbLinetypeTableRecord
  2
BYLAYER
 70
     0
  3

 72
    65
 73
     0
 40
0.0
  0
LTYPE
  5
16
330
5
100
AcDbSymbolTableRecord
100
AcDbLinetypeTableRecord
  2
CONTINUOUS
 70
     0
  3
Solid line
 72
    65
 73
     0
 40
0.0
  0
ENDTAB
  0
TABLE
  2
LAYER
  5
2
100
AcDbSymbolTable
 70
2
  0
LAYER
  5
50
100
AcDbSymbolTableRecord
100
AcDbLayerTableRecord
  2
0
 70
0
  6
CONTINUOUS
  0
LAYER
  5
51
100
AcDbSymbolTableRecord
100
AcDbLayerTableRecord
  2
Layer_1
 70
0
  6
CONTINUOUS
  0
ENDTAB
  0
TABLE
  2
STYLE
  5
3
330
0
100
AcDbSymbolTable
 70
     1
  0
STYLE
  5
11
330
3
100
AcDbSymbolTableRecord
100
AcDbTextStyleTableRecord
  2
STANDARD
 70
     0
 40
0.0
 41
1.0
 50
0.0
 71
     0
 42
2.5
  3
txt
  4

  0
ENDTAB
  0
TABLE
  2
VIEW
  5
6
330
0
100
AcDbSymbolTable
 70
     0
  0
ENDTAB
  0
TABLE
  2
UCS
  5
7
330
0
100
AcDbSymbolTable
 70
     0
  0
ENDTAB
  0
TABLE
  2
APPID
  5
9
330
0
100
AcDbSymbolTable
 70
     2
  0
APPID
  5
12
330
9
100
AcDbSymbolTableRecord
100
AcDbRegAppTableRecord
  2
ACAD
 70
     0
  0
ENDTAB
  0
TABLE
  2
DIMSTYLE
  5
A
330
0
100
AcDbSymbolTable
 70
     1
  0
DIMSTYLE
105
27
330
A
100
AcDbSymbolTableRecord
100
AcDbDimStyleTableRecord
  2
ISO-25
 70
     0
  3

  4

  5

  6

  7

 40
1.0
 41
2.5
 42
0.625
 43
3.75
 44
1.25
 45
0.0
 46
0.0
 47
0.0
 48
0.0
140
2.5
141
2.5
142
0.0
143
0.03937007874016
144
1.0
145
0.0
146
1.0
147
0.625
 71
     0
 72
     0
 73
     0
 74
     0
 75
     0
 76
     0
 77
     1
 78
     8
170
     0
171
     3
172
     1
173
     0
174
     0
175
     0
176
     0
177
     0
178
     0
270
     2
271
     2
272
     2
273
     2
274
     3
340
11
275
     0
280
     0
281
     0
282
     0
283
     0
284
     8
285
     0
286
     0
287
     3
288
     0
  0
ENDTAB
  0
TABLE
  2
BLOCK_RECORD
  5
1
330
0
100
AcDbSymbolTable
 70
     1
  0
BLOCK_RECORD
  5
1F
330
1
100
AcDbSymbolTableRecord
100
AcDbBlockTableRecord
  2
*MODEL_SPACE
  0
BLOCK_RECORD
  5
1B
330
1
100
AcDbSymbolTableRecord
100
AcDbBlockTableRecord
  2
*PAPER_SPACE
  0
ENDTAB
  0
ENDSEC
  0
SECTION
  2
BLOCKS
  0
BLOCK
  5
20
330
1F
100
AcDbEntity
  8
0
100
AcDbBlockBegin
  2
*MODEL_SPACE
 70
     0
 10
0.0
 20
0.0
 30
0.0
  3
*MODEL_SPACE
  1

  0
ENDBLK
  5
21
330
1F
100
AcDbEntity
  8
0
100
AcDbBlockEnd
  0
BLOCK
  5
1C
330
1B
100
AcDbEntity
 67
     1
  8
0
100
AcDbBlockBegin
  2
*PAPER_SPACE
  1

  0
ENDBLK
  5
1D
330
1B
100
AcDbEntity
 67
     1
  8
0
100
AcDbBlockEnd
  0
ENDSEC
  0
SECTION
  2
ENTITIES
  0
SPLINE
  5
100
100
AcDbEntity
  8
Layer_1
 62
7
100
AcDbSpline
 70
8
 71
3
 72
8
 73
4
 74
0
 40
0
 40
0
 40
0
 40
0
 40
1
 40
1
 40
1
 40
1
 10
18.868517
 20
37.739762
 30
0.0
 10
8.447459
 20
37.739676
 30
0.0
 10
-0.000457
 20
29.291760
 30
0.0
 10
-0.000543
 20
18.870701
 30
0.0
  0
SPLINE
  5
101
100
AcDbEntity
  8
Layer_1
 62
7
100
AcDbSpline
 70
8
 71
3
 72
8
 73
4
 74
0
 40
0
 40
0
 40
0
 40
0
 40
1
 40
1
 40
1
 40
1
 10
7.945072
 20
18.870701
 30
0.0
 10
7.945162
 20
24.903516
 30
0.0
 10
12.835703
 20
29.794055
 30
0.0
 10
18.868517
 20
29.794142
 30
0.0
  0
LWPOLYLINE
  5
102
100
AcDbEntity
  8
Layer_1
 62
7
100
AcDbPolyline
 90
2
 70
0
 10
-0.000543
 20
18.870701
 30
0.0
 10
7.945072
 20
18.870701
 30
0.0
  0
SPLINE
  5
103
100
AcDbEntity
  8
Layer_1
 62
7
100
AcDbSpline
 70
8
 71
3
 72
8
 73
4
 74
0
 40
0
 40
0
 40
0
 40
0
 40
1
 40
1
 40
1
 40
1
 10
209.871235
 20
-451.108594
 30
0.0
 10
203.798091
 20
-451.108594
 30
0.0
 10
198.322948
 20
-454.766968
 30
0.0
 10
195.998856
 20
-460.377821
 30
0.0
  0
SPLINE
  5
104
100
AcDbEntity
  8
Layer_1
 62
7
100
AcDbSpline
 70
8
 71
3
 72
8
 73
4
 74
0
 40
0
 40
0
 40
0
 40
0
 40
1
 40
1
 40
1
 40
1
 10
195.998856
 20
-460.377821
 30
0.0
 10
193.674765
 20
-465.988674
 30
0.0
 10
194.959415
 20
-472.447046
 30
0.0
 10
199.253776
 20
-476.741407
 30
0.0
  0
SPLINE
  5
105
100
AcDbEntity
  8
Layer_1
 62
7
100
AcDbSpline
 70
8
 71
3
 72
8
 73
4
 74
0
 40
0
 40
0
 40
0
 40
0
 40
1
 40
1
 40
1
 40
1
 10
199.253776
 20
-476.741407
 30
0.0
 10
203.548137
 20
-481.035768
 30
0.0
 10
210.006509
 20
-482.320418
 30
0.0
 10
215.617362
 20
-479.996327
 30
0.0
  0
SPLINE
  5
106
100
AcDbEntity
  8
Layer_1
 62
7
100
AcDbSpline
 70
8
 71
3
 72
8
 73
4
 74
0
 40
0
 40
0
 40
0
 40
0
 40
1
 40
1
 40
1
 40
1
 10
215.617362
 20
-479.996327
 30
0.0
 10
221.228216
 20
-477.672235
 30
0.0
 10
224.886589
 20
-472.197092
 30
0.0
 10
224.886589
 20
-466.123948
 30
0.0
  0
SPLINE
  5
107
100
AcDbEntity
  8
Layer_1
 62
7
100
AcDbSpline
 70
8
 71
3
 72
8
 73
4
 74
0
 40
0
 40
0
 40
0
 40
0
 40
1
 40
1
 40
1
 40
1
 10
224.886589
 20
-466.123948
 30
0.0
 10
224.886589
 20
-462.141629
 30
0.0
 10
223.304619
 20
-458.322415
 30
0.0
 10
220.488694
 20
-455.506489
 30
0.0
  0
SPLINE
  5
108
100
AcDbEntity
  8
Layer_1
 62
7
100
AcDbSpline
 70
8
 71
3
 72
8
 73
4
 74
0
 40
0
 40
0
 40
0
 40
0
 40
1
 40
1
 40
1
 40
1
 10
220.488694
 20
-455.506489
 30
0.0
 10
217.672769
 20
-452.690564
 30
0.0
 10
213.853554
 20
-451.108594
 30
0.0
 10
209.871235
 20
-451.108594
 30
0.0
  0
LWPOLYLINE
  5
109
100
AcDbEntity
  8
Layer_1
 62
7
100
AcDbPolyline
 90
2
 70
0
 10
18.868517
 20
29.794142
 30
0.0
 10
18.868517
 20
37.739762
 30
0.0
  0
SPLINE
  5
10a
100
AcDbEntity
  8
Layer_1
 62
7
100
AcDbSpline
 70
8
 71
3
 72
8
 73
4
 74
0
 40
0
 40
0
 40
0
 40
0
 40
1
 40
1
 40
1
 40
1
 10
-0.000452
 20
18.870182
 30
0.0
 10
0.002234
 20
13.174831
 30
0.0
 10
2.577215
 20
7.785396
 30
0.0
 10
7.006356
 20
4.204931
 30
0.0
  0
SPLINE
  5
10b
100
AcDbEntity
  8
Layer_1
 62
7
100
AcDbSpline
 70
8
 71
3
 72
8
 73
4
 74
0
 40
0
 40
0
 40
0
 40
0
 40
1
 40
1
 40
1
 40
1
 10
7.006356
 20
4.204931
 30
0.0
 10
7.621993
 20
5.356150
 30
0.0
 10
7.944485
 20
6.641328
 30
0.0
 10
7.945316
 20
7.946821
 30
0.0
  0
LWPOLYLINE
  5
10c
100
AcDbEntity
  8
Layer_1
 62
7
100
AcDbPolyline
 90
1
 70
1
 10
209.871235
 20
-451.108594
 30
0.0
  0
SPLINE
  5
10d
100
AcDbEntity
  8
Layer_1
 62
7
100
AcDbSpline
 70
8
 71
3
 72
8
 73
4
 74
0
 40
0
 40
0
 40
0
 40
0
 40
1
 40
1
 40
1
 40
1
 10
18.868517
 20
37.739832
 30
0.0
 10
24.563867
 20
37.737149
 30
0.0
 10
29.953304
 20
35.162171
 30
0.0
 10
33.533771
 20
30.733032
 30
0.0
  0
SPLINE
  5
10e
100
AcDbEntity
  8
Layer_1
 62
7
100
AcDbSpline
 70
8
 71
3
 72
8
 73
4
 74
0
 40
0
 40
0
 40
0
 40
0
 40
1
 40
1
 40
1
 40
1
 10
33.533771
 20
30.733032
 30
0.0
 10
32.382551
 20
30.117395
 30
0.0
 10
31.097374
 20
29.794902
 30
0.0
 10
29.791880
 20
29.794072
 30
0.0
  0
LWPOLYLINE
  5
10f
100
AcDbEntity
  8
Layer_1
 62
7
100
AcDbPolyline
 90
3
 70
0
 10
7.945316
 20
7.946821
 30
0.0
 10
7.945316
 20
18.870182
 30
0.0
 10
-0.000452
 20
18.870182
 30
0.0
  0
LWPOLYLINE
  5
110
100
AcDbEntity
  8
Layer_1
 62
7
100
AcDbPolyline
 90
3
 70
0
 10
29.791880
 20
29.794072
 30
0.0
 10
18.868517
 20
29.794072
 30
0.0
 10
18.868517
 20
37.739832
 30
0.0
  0
SPLINE
  5
111
100
AcDbEntity
  8
Layer_1
 62
7
100
AcDbSpline
 70
8
 71
3
 72
8
 73
4
 74
0
 40
0
 40
0
 40
0
 40
0
 40
1
 40
1
 40
1
 40
1
 10
29.792561
 20
7.944301
 30
0.0
 10
29.792513
 20
3.610981
 30
0.0
 10
33.261597
 20
0.088631
 30
0.0
 10
37.573999
 20
0.001121
 30
0.0
  0
LWPOLYLINE
  5
112
100
AcDbEntity
  8
Layer_1
 62
7
100
AcDbPolyline
 90
2
 70
0
 10
29.792561
 20
7.946301
 30
0.0
 10
29.792561
 20
7.944301
 30
0.0
  0
SPLINE
  5
113
100
AcDbEntity
  8
Layer_1
 62
7
100
AcDbSpline
 70
8
 71
3
 72
8
 73
4
 74
0
 40
0
 40
0
 40
0
 40
0
 40
1
 40
1
 40
1
 40
1
 10
37.738329
 20
0.027321
 30
0.0
 10
37.738329
 20
2.127583
 30
0.0
 10
36.903998
 20
4.141822
 30
0.0
 10
35.418883
 20
5.626924
 30
0.0
  0
SPLINE
  5
114
100
AcDbEntity
  8
Layer_1
 62
7
100
AcDbSpline
 70
8
 71
3
 72
8
 73
4
 74
0
 40
0
 40
0
 40
0
 40
0
 40
1
 40
1
 40
1
 40
1
 10
35.418883
 20
5.626924
 30
0.0
 10
33.933767
 20
7.112027
 30
0.0
 10
31.919520
 20
7.946340
 30
0.0
 10
29.819259
 20
7.946321
 30
0.0
  0
LWPOLYLINE
  5
115
100
AcDbEntity
  8
Layer_1
 62
7
100
AcDbPolyline
 90
3
 70
0
 10
37.573999
 20
0.001121
 30
0.0
 10
37.738329
 20
0.001121
 30
0.0
 10
37.738329
 20
0.027321
 30
0.0
  0
SPLINE
  5
116
100
AcDbEntity
  8
Layer_1
 62
7
100
AcDbSpline
 70
8
 71
3
 72
8
 73
4
 74
0
 40
0
 40
0
 40
0
 40
0
 40
1
 40
1
 40
1
 40
1
 10
29.055657
 20
22.802762
 30
0.0
 10
29.541072
 20
21.548579
 30
0.0
 10
29.790720
 20
20.215543
 30
0.0
 10
29.792046
 20
18.870702
 30
0.0
  0
LWPOLYLINE
  5
117
100
AcDbEntity
  8
Layer_1
 62
7
100
AcDbPolyline
 90
2
 70
0
 10
29.819259
 20
7.946321
 30
0.0
 10
29.792561
 20
7.946301
 30
0.0
  0
SPLINE
  5
118
100
AcDbEntity
  8
Layer_1
 62
7
100
AcDbSpline
 70
8
 71
3
 72
8
 73
4
 74
0
 40
0
 40
0
 40
0
 40
0
 40
1
 40
1
 40
1
 40
1
 10
36.692400
 20
18.870702
 30
0.0
 10
37.113893
 20
19.610206
 30
0.0
 10
37.413822
 20
20.412634
 30
0.0
 10
37.580717
 20
21.247302
 30
0.0
  0
SPLINE
  5
119
100
AcDbEntity
  8
Layer_1
 62
7
100
AcDbSpline
 70
8
 71
3
 72
8
 73
4
 74
0
 40
0
 40
0
 40
0
 40
0
 40
1
 40
1
 40
1
 40
1
 10
37.580717
 20
21.247302
 30
0.0
 10
37.515616
 20
21.769191
 30
0.0
 10
37.428723
 20
22.288131
 30
0.0
 10
37.320267
 20
22.802762
 30
0.0
  0
LWPOLYLINE
  5
11a
100
AcDbEntity
  8
Layer_1
 62
7
100
AcDbPolyline
 90
2
 70
0
 10
29.792046
 20
18.870702
 30
0.0
 10
36.692400
 20
18.870702
 30
0.0
  0
SPLINE
  5
11b
100
AcDbEntity
  8
Layer_1
 62
7
100
AcDbSpline
 70
8
 71
3
 72
8
 73
4
 74
0
 40
0
 40
0
 40
0
 40
0
 40
1
 40
1
 40
1
 40
1
 10
29.792561
 20
18.868631
 30
0.0
 10
29.792633
 20
18.914932
 30
0.0
 10
29.792548
 20
16.050871
 30
0.0
 10
29.792561
 20
14.857511
 30
0.0
  0
SPLINE
  5
11c
100
AcDbEntity
  8
Layer_1
 62
7
100
AcDbSpline
 70
8
 71
3
 72
8
 73
4
 74
0
 40
0
 40
0
 40
0
 40
0
 40
1
 40
1
 40
1
 40
1
 10
29.792561
 20
14.857511
 30
0.0
 10
32.645512
 20
14.859047
 30
0.0
 10
35.278647
 20
16.390011
 30
0.0
 10
36.691365
 20
18.868631
 30
0.0
  0
LWPOLYLINE
  5
11d
100
AcDbEntity
  8
Layer_1
 62
7
100
AcDbPolyline
 90
2
 70
0
 10
37.320267
 20
22.802762
 30
0.0
 10
29.055657
 20
22.802762
 30
0.0
  0
SPLINE
  5
11e
100
AcDbEntity
  8
Layer_1
 62
7
100
AcDbSpline
 70
8
 71
3
 72
8
 73
4
 74
0
 40
0
 40
0
 40
0
 40
0
 40
1
 40
1
 40
1
 40
1
 10
18.868607
 20
37.739442
 30
0.0
 10
8.447549
 20
37.739356
 30
0.0
 10
-0.000367
 20
29.291440
 30
0.0
 10
-0.000453
 20
18.870381
 30
0.0
  0
LWPOLYLINE
  5
11f
100
AcDbEntity
  8
Layer_1
 62
7
100
AcDbPolyline
 90
2
 70
0
 10
36.691365
 20
18.868631
 30
0.0
 10
29.792561
 20
18.868631
 30
0.0
  0
SPLINE
  5
120
100
AcDbEntity
  8
Layer_1
 62
7
100
AcDbSpline
 70
8
 71
3
 72
8
 73
4
 74
0
 40
0
 40
0
 40
0
 40
0
 40
1
 40
1
 40
1
 40
1
 10
7.945162
 20
18.870381
 30
0.0
 10
7.945246
 20
24.903200
 30
0.0
 10
12.835789
 20
29.793745
 30
0.0
 10
18.868607
 20
29.793832
 30
0.0
  0
LWPOLYLINE
  5
121
100
AcDbEntity
  8
Layer_1
 62
7
100
AcDbPolyline
 90
2
 70
0
 10
-0.000453
 20
18.870381
 30
0.0
 10
7.945162
 20
18.870381
 30
0.0
  0
LWPOLYLINE
  5
122
100
AcDbEntity
  8
Layer_1
 62
7
100
AcDbPolyline
 90
2
 70
0
 10
18.868607
 20
29.793832
 30
0.0
 10
18.868607
 20
37.739442
 30
0.0
  0
SPLINE
  5
123
100
AcDbEntity
  8
Layer_1
 62
7
100
AcDbSpline
 70
8
 71
3
 72
8
 73
4
 74
0
 40
0
 40
0
 40
0
 40
0
 40
1
 40
1
 40
1
 40
1
 10
37.737493
 20
37.739682
 30
0.0
 10
37.737493
 20
35.632375
 30
0.0
 10
36.900368
 20
33.611377
 30
0.0
 10
35.410276
 20
32.121287
 30
0.0
  0
SPLINE
  5
124
100
AcDbEntity
  8
Layer_1
 62
7
100
AcDbSpline
 70
8
 71
3
 72
8
 73
4
 74
0
 40
0
 40
0
 40
0
 40
0
 40
1
 40
1
 40
1
 40
1
 10
35.410276
 20
32.121287
 30
0.0
 10
33.920185
 20
30.631196
 30
0.0
 10
31.899187
 20
29.794071
 30
0.0
 10
29.791880
 20
29.794072
 30
0.0
  0
LWPOLYLINE
  5
125
100
AcDbEntity
  8
Layer_1
 62
7
100
AcDbPolyline
 90
2
 70
0
 10
18.867721
 20
37.739682
 30
0.0
 10
37.737493
 20
37.739682
 30
0.0
  0
LWPOLYLINE
  5
126
100
AcDbEntity
  8
Layer_1
 62
7
100
AcDbPolyline
 90
3
 70
0
 10
29.791880
 20
29.794072
 30
0.0
 10
18.867721
 20
29.794072
 30
0.0
 10
18.867721
 20
37.739682
 30
0.0
  0
SPLINE
  5
127
100
AcDbEntity
  8
Layer_1
 62
7
100
AcDbSpline
 70
8
 71
3
 72
8
 73
4
 74
0
 40
0
 40
0
 40
0
 40
0
 40
1
 40
1
 40
1
 40
1
 10
-0.000401
 20
0.000821
 30
0.0
 10
2.106908
 20
0.000821
 30
0.0
 10
4.127908
 20
0.837947
 30
0.0
 10
5.618000
 20
2.328039
 30
0.0
  0
SPLINE
  5
128
100
AcDbEntity
  8
Layer_1
 62
7
100
AcDbSpline
 70
8
 71
3
 72
8
 73
4
 74
0
 40
0
 40
0
 40
0
 40
0
 40
1
 40
1
 40
1
 40
1
 10
5.618000
 20
2.328039
 30
0.0
 10
7.108093
 20
3.818132
 30
0.0
 10
7.945218
 20
5.839132
 30
0.0
 10
7.945217
 20
7.946441
 30
0.0
  0
LWPOLYLINE
  5
129
100
AcDbEntity
  8
Layer_1
 62
7
100
AcDbPolyline
 90
3
 70
0
 10
-0.000401
 20
18.870592
 30
0.0
 10
-0.000401
 20
0.000821
 30
0.0
 10
-0.000401
 20
0.000821
 30
0.0
  0
SPLINE
  5
12a
100
AcDbEntity
  8
Layer_1
 62
7
100
AcDbSpline
 70
8
 71
3
 72
8
 73
4
 74
0
 40
0
 40
0
 40
0
 40
0
 40
1
 40
1
 40
1
 40
1
 10
18.868644
 20
22.802572
 30
0.0
 10
21.062764
 20
22.802567
 30
0.0
 10
22.841448
 20
21.023881
 30
0.0
 10
22.841450
 20
18.829761
 30
0.0
  0
SPLINE
  5
12b
100
AcDbEntity
  8
Layer_1
 62
7
100
AcDbSpline
 70
8
 71
3
 72
8
 73
4
 74
0
 40
0
 40
0
 40
0
 40
0
 40
1
 40
1
 40
1
 40
1
 10
22.841450
 20
18.829761
 30
0.0
 10
22.841443
 20
16.635646
 30
0.0
 10
21.062760
 20
14.856966
 30
0.0
 10
18.868644
 20
14.856961
 30
0.0
  0
LWPOLYLINE
  5
12c
100
AcDbEntity
  8
Layer_1
 62
7
100
AcDbPolyline
 90
3
 70
0
 10
7.945217
 20
7.946441
 30
0.0
 10
7.945217
 20
18.870592
 30
0.0
 10
-0.000401
 20
18.870592
 30
0.0
  0
SPLINE
  5
12d
100
AcDbEntity
  8
Layer_1
 62
7
100
AcDbSpline
 70
8
 71
3
 72
8
 73
4
 74
0
 40
0
 40
0
 40
0
 40
0
 40
1
 40
1
 40
1
 40
1
 10
29.792800
 20
14.856961
 30
0.0
 10
31.900108
 20
14.856959
 30
0.0
 10
33.921107
 20
15.694083
 30
0.0
 10
35.411200
 20
17.184174
 30
0.0
  0
SPLINE
  5
12e
100
AcDbEntity
  8
Layer_1
 62
7
100
AcDbSpline
 70
8
 71
3
 72
8
 73
4
 74
0
 40
0
 40
0
 40
0
 40
0
 40
1
 40
1
 40
1
 40
1
 10
35.411200
 20
17.184174
 30
0.0
 10
36.901293
 20
18.674265
 30
0.0
 10
37.738419
 20
20.695263
 30
0.0
 10
37.738420
 20
22.802572
 30
0.0
  0
LWPOLYLINE
  5
12f
100
AcDbEntity
  8
Layer_1
 62
7
100
AcDbPolyline
 90
2
 70
0
 10
18.868644
 20
14.856961
 30
0.0
 10
29.792800
 20
14.856961
 30
0.0
  0
SPLINE
  5
130
100
AcDbEntity
  8
Layer_1
 62
7
100
AcDbSpline
 70
8
 71
3
 72
8
 73
4
 74
0
 40
0
 40
0
 40
0
 40
0
 40
1
 40
1
 40
1
 40
1
 10
37.738388
 20
0.001131
 30
0.0
 10
31.449179
 20
0.001131
 30
0.0
 10
18.679333
 20
0.001421
 30
0.0
 10
18.870762
 20
0.001131
 30
0.0
  0
LWPOLYLINE
  5
131
100
AcDbEntity
  8
Layer_1
 62
7
100
AcDbPolyline
 90
2
 70
0
 10
37.738420
 20
22.802572
 30
0.0
 10
18.868644
 20
22.802572
 30
0.0
  0
SPLINE
  5
132
100
AcDbEntity
  8
Layer_1
 62
7
100
AcDbSpline
 70
8
 71
3
 72
8
 73
4
 74
0
 40
0
 40
0
 40
0
 40
0
 40
1
 40
1
 40
1
 40
1
 10
29.792766
 20
7.946751
 30
0.0
 10
31.900076
 20
7.946751
 30
0.0
 10
33.921076
 20
7.109626
 30
0.0
 10
35.411169
 20
5.619533
 30
0.0
  0
SPLINE
  5
133
100
AcDbEntity
  8
Layer_1
 62
7
100
AcDbSpline
 70
8
 71
3
 72
8
 73
4
 74
0
 40
0
 40
0
 40
0
 40
0
 40
1
 40
1
 40
1
 40
1
 10
35.411169
 20
5.619533
 30
0.0
 10
36.901262
 20
4.129441
 30
0.0
 10
37.738388
 20
2.108441
 30
0.0
 10
37.738388
 20
0.001131
 30
0.0
  0
LWPOLYLINE
  5
134
100
AcDbEntity
  8
Layer_1
 62
7
100
AcDbPolyline
 90
3
 70
0
 10
18.870762
 20
0.001131
 30
0.0
 10
18.870762
 20
7.946751
 30
0.0
 10
29.792766
 20
7.946751
 30
0.0
  0
SPLINE
  5
135
100
AcDbEntity
  8
Layer_1
 62
7
100
AcDbSpline
 70
8
 71
3
 72
8
 73
4
 74
0
 40
0
 40
0
 40
0
 40
0
 40
1
 40
1
 40
1
 40
1
 10
-0.000447
 20
18.869692
 30
0.0
 10
-0.000361
 20
8.448629
 30
0.0
 10
8.447562
 20
0.000711
 30
0.0
 10
18.868624
 20
0.000631
 30
0.0
  0
LWPOLYLINE
  5
136
100
AcDbEntity
  8
Layer_1
 62
7
100
AcDbPolyline
 90
1
 70
1
 10
37.738388
 20
0.001131
 30
0.0
  0
SPLINE
  5
137
100
AcDbEntity
  8
Layer_1
 62
7
100
AcDbSpline
 70
8
 71
3
 72
8
 73
4
 74
0
 40
0
 40
0
 40
0
 40
0
 40
1
 40
1
 40
1
 40
1
 10
18.868624
 20
7.946241
 30
0.0
 10
12.835807
 20
7.946328
 30
0.0
 10
7.945264
 20
12.836874
 30
0.0
 10
7.945180
 20
18.869692
 30
0.0
  0
LWPOLYLINE
  5
138
100
AcDbEntity
  8
Layer_1
 62
7
100
AcDbPolyline
 90
2
 70
0
 10
18.868624
 20
0.000631
 30
0.0
 10
18.868624
 20
7.946241
 30
0.0
  0
SPLINE
  5
139
100
AcDbEntity
  8
Layer_1
 62
7
100
AcDbSpline
 70
8
 71
3
 72
8
 73
4
 74
0
 40
0
 40
0
 40
0
 40
0
 40
1
 40
1
 40
1
 40
1
 10
37.737670
 20
18.870382
 30
0.0
 10
37.737584
 20
29.291441
 30
0.0
 10
29.289667
 20
37.739357
 30
0.0
 10
18.868607
 20
37.739442
 30
0.0
  0
LWPOLYLINE
  5
13a
100
AcDbEntity
  8
Layer_1
 62
7
100
AcDbPolyline
 90
2
 70
0
 10
7.945180
 20
18.869692
 30
0.0
 10
-0.000447
 20
18.869692
 30
0.0
  0
SPLINE
  5
13b
100
AcDbEntity
  8
Layer_1
 62
7
100
AcDbSpline
 70
8
 71
3
 72
8
 73
4
 74
0
 40
0
 40
0
 40
0
 40
0
 40
1
 40
1
 40
1
 40
1
 10
18.868607
 20
29.793832
 30
0.0
 10
24.901424
 20
29.793743
 30
0.0
 10
29.791965
 20
24.903198
 30
0.0
 10
29.792049
 20
18.870382
 30
0.0
  0
LWPOLYLINE
  5
13c
100
AcDbEntity
  8
Layer_1
 62
7
100
AcDbPolyline
 90
2
 70
0
 10
18.868607
 20
37.739442
 30
0.0
 10
18.868607
 20
29.793832
 30
0.0
  0
SPLINE
  5
13d
100
AcDbEntity
  8
Layer_1
 62
7
100
AcDbSpline
 70
8
 71
3
 72
8
 73
4
 74
0
 40
0
 40
0
 40
0
 40
0
 40
1
 40
1
 40
1
 40
1
 10
18.868607
 20
37.739442
 30
0.0
 10
8.447549
 20
37.739356
 30
0.0
 10
-0.000367
 20
29.291440
 30
0.0
 10
-0.000453
 20
18.870381
 30
0.0
  0
LWPOLYLINE
  5
13e
100
AcDbEntity
  8
Layer_1
 62
7
100
AcDbPolyline
 90
2
 70
0
 10
29.792049
 20
18.870382
 30
0.0
 10
37.737670
 20
18.870382
 30
0.0
  0
SPLINE
  5
13f
100
AcDbEntity
  8
Layer_1
 62
7
100
AcDbSpline
 70
8
 71
3
 72
8
 73
4
 74
0
 40
0
 40
0
 40
0
 40
0
 40
1
 40
1
 40
1
 40
1
 10
7.945162
 20
18.870381
 30
0.0
 10
7.945246
 20
24.903200
 30
0.0
 10
12.835789
 20
29.793745
 30
0.0
 10
18.868607
 20
29.793832
 30
0.0
  0
LWPOLYLINE
  5
140
100
AcDbEntity
  8
Layer_1
 62
7
100
AcDbPolyline
 90
2
 70
0
 10
-0.000453
 20
18.870381
 30
0.0
 10
7.945162
 20
18.870381
 30
0.0
  0
SPLINE
  5
141
100
AcDbEntity
  8
Layer_1
 62
7
100
AcDbSpline
 70
8
 71
3
 72
8
 73
4
 74
0
 40
0
 40
0
 40
0
 40
0
 40
1
 40
1
 40
1
 40
1
 10
209.871579
 20
-451.109803
 30
0.0
 10
203.798435
 20
-451.109803
 30
0.0
 10
198.323292
 20
-454.768177
 30
0.0
 10
195.999200
 20
-460.379030
 30
0.0
  0
SPLINE
  5
142
100
AcDbEntity
  8
Layer_1
 62
7
100
AcDbSpline
 70
8
 71
3
 72
8
 73
4
 74
0
 40
0
 40
0
 40
0
 40
0
 40
1
 40
1
 40
1
 40
1
 10
195.999200
 20
-460.379030
 30
0.0
 10
193.675109
 20
-465.989884
 30
0.0
 10
194.959759
 20
-472.448255
 30
0.0
 10
199.254120
 20
-476.742617
 30
0.0
  0
SPLINE
  5
143
100
AcDbEntity
  8
Layer_1
 62
7
100
AcDbSpline
 70
8
 71
3
 72
8
 73
4
 74
0
 40
0
 40
0
 40
0
 40
0
 40
1
 40
1
 40
1
 40
1
 10
199.254120
 20
-476.742617
 30
0.0
 10
203.548481
 20
-481.036978
 30
0.0
 10
210.006853
 20
-482.321628
 30
0.0
 10
215.617706
 20
-479.997536
 30
0.0
  0
SPLINE
  5
144
100
AcDbEntity
  8
Layer_1
 62
7
100
AcDbSpline
 70
8
 71
3
 72
8
 73
4
 74
0
 40
0
 40
0
 40
0
 40
0
 40
1
 40
1
 40
1
 40
1
 10
215.617706
 20
-479.997536
 30
0.0
 10
221.228560
 20
-477.673445
 30
0.0
 10
224.886933
 20
-472.198302
 30
0.0
 10
224.886933
 20
-466.125158
 30
0.0
  0
SPLINE
  5
145
100
AcDbEntity
  8
Layer_1
 62
7
100
AcDbSpline
 70
8
 71
3
 72
8
 73
4
 74
0
 40
0
 40
0
 40
0
 40
0
 40
1
 40
1
 40
1
 40
1
 10
224.886933
 20
-466.125158
 30
0.0
 10
224.886933
 20
-462.142838
 30
0.0
 10
223.304963
 20
-458.323624
 30
0.0
 10
220.489038
 20
-455.507699
 30
0.0
  0
SPLINE
  5
146
100
AcDbEntity
  8
Layer_1
 62
7
100
AcDbSpline
 70
8
 71
3
 72
8
 73
4
 74
0
 40
0
 40
0
 40
0
 40
0
 40
1
 40
1
 40
1
 40
1
 10
220.489038
 20
-455.507699
 30
0.0
 10
217.673112
 20
-452.691774
 30
0.0
 10
213.853898
 20
-451.109803
 30
0.0
 10
209.871579
 20
-451.109803
 30
0.0
  0
LWPOLYLINE
  5
147
100
AcDbEntity
  8
Layer_1
 62
7
100
AcDbPolyline
 90
2
 70
0
 10
18.868607
 20
29.793832
 30
0.0
 10
18.868607
 20
37.739442
 30
0.0
  0
SPLINE
  5
148
100
AcDbEntity
  8
Layer_1
 62
7
100
AcDbSpline
 70
8
 71
3
 72
8
 73
4
 74
0
 40
0
 40
0
 40
0
 40
0
 40
1
 40
1
 40
1
 40
1
 10
209.871579
 20
-451.109803
 30
0.0
 10
203.798435
 20
-451.109803
 30
0.0
 10
198.323292
 20
-454.768177
 30
0.0
 10
195.999200
 20
-460.379030
 30
0.0
  0
SPLINE
  5
149
100
AcDbEntity
  8
Layer_1
 62
7
100
AcDbSpline
 70
8
 71
3
 72
8
 73
4
 74
0
 40
0
 40
0
 40
0
 40
0
 40
1
 40
1
 40
1
 40
1
 10
195.999200
 20
-460.379030
 30
0.0
 10
193.675109
 20
-465.989884
 30
0.0
 10
194.959759
 20
-472.448255
 30
0.0
 10
199.254120
 20
-476.742617
 30
0.0
  0
SPLINE
  5
14a
100
AcDbEntity
  8
Layer_1
 62
7
100
AcDbSpline
 70
8
 71
3
 72
8
 73
4
 74
0
 40
0
 40
0
 40
0
 40
0
 40
1
 40
1
 40
1
 40
1
 10
199.254120
 20
-476.742617
 30
0.0
 10
203.548481
 20
-481.036978
 30
0.0
 10
210.006853
 20
-482.321628
 30
0.0
 10
215.617706
 20
-479.997536
 30
0.0
  0
SPLINE
  5
14b
100
AcDbEntity
  8
Layer_1
 62
7
100
AcDbSpline
 70
8
 71
3
 72
8
 73
4
 74
0
 40
0
 40
0
 40
0
 40
0
 40
1
 40
1
 40
1
 40
1
 10
215.617706
 20
-479.997536
 30
0.0
 10
221.228560
 20
-477.673445
 30
0.0
 10
224.886933
 20
-472.198302
 30
0.0
 10
224.886933
 20
-466.125158
 30
0.0
  0
SPLINE
  5
14c
100
AcDbEntity
  8
Layer_1
 62
7
100
AcDbSpline
 70
8
 71
3
 72
8
 73
4
 74
0
 40
0
 40
0
 40
0
 40
0
 40
1
 40
1
 40
1
 40
1
 10
224.886933
 20
-466.125158
 30
0.0
 10
224.886933
 20
-462.142838
 30
0.0
 10
223.304963
 20
-458.323624
 30
0.0
 10
220.489038
 20
-455.507699
 30
0.0
  0
SPLINE
  5
14d
100
AcDbEntity
  8
Layer_1
 62
7
100
AcDbSpline
 70
8
 71
3
 72
8
 73
4
 74
0
 40
0
 40
0
 40
0
 40
0
 40
1
 40
1
 40
1
 40
1
 10
220.489038
 20
-455.507699
 30
0.0
 10
217.673112
 20
-452.691774
 30
0.0
 10
213.853898
 20
-451.109803
 30
0.0
 10
209.871579
 20
-451.109803
 30
0.0
  0
SPLINE
  5
14e
100
AcDbEntity
  8
Layer_1
 62
7
100
AcDbSpline
 70
8
 71
3
 72
8
 73
4
 74
0
 40
0
 40
0
 40
0
 40
0
 40
1
 40
1
 40
1
 40
1
 10
29.792767
 20
7.946751
 30
0.0
 10
29.792830
 20
13.507601
 30
0.0
 10
29.792891
 20
18.996882
 30
0.0
 10
29.792700
 20
18.870882
 30
0.0
  0
LWPOLYLINE
  5
14f
100
AcDbEntity
  8
Layer_1
 62
7
100
AcDbPolyline
 90
2
 70
1
 10
209.871579
 20
-451.109803
 30
0.0
 10
209.871579
 20
-451.109803
 30
0.0
  0
SPLINE
  5
150
100
AcDbEntity
  8
Layer_1
 62
7
100
AcDbSpline
 70
8
 71
3
 72
8
 73
4
 74
0
 40
0
 40
0
 40
0
 40
0
 40
1
 40
1
 40
1
 40
1
 10
37.738329
 20
0.001121
 30
0.0
 10
33.350044
 20
0.001121
 30
0.0
 10
29.792717
 20
3.558501
 30
0.0
 10
29.792767
 20
7.946751
 30
0.0
  0
LWPOLYLINE
  5
151
100
AcDbEntity
  8
Layer_1
 62
7
100
AcDbPolyline
 90
3
 70
0
 10
29.792700
 20
18.870882
 30
0.0
 10
37.738329
 20
18.870882
 30
0.0
 10
37.738329
 20
0.001121
 30
0.0
  0
LWPOLYLINE
  5
152
100
AcDbEntity
  8
Layer_1
 62
7
100
AcDbPolyline
 90
1
 70
1
 10
29.792767
 20
7.946751
 30
0.0
  0
ENDSEC
  0
SECTION
  2
OBJECTS
  0
DICTIONARY
  5
C
330
0
100
AcDbDictionary
  3
ACAD_GROUP
350
D
  3
ACAD_MLINESTYLE
350
17
  0
DICTIONARY
  5
D
330
C
100
AcDbDictionary
  0
DICTIONARY
  5
1A
330
C
100
AcDbDictionary
  0
DICTIONARY
  5
17
330
C
100
AcDbDictionary
  3
STANDARD
350
18
  0
DICTIONARY
  5
19
330
C
100
AcDbDictionary
  0
ENDSEC
  0
EOF
