M48
; DRILL file {KiCad (5.1.10)-1} date 03/15/23 18:11:01
; FORMAT={-:-/ absolute / inch / decimal}
; #@! TF.CreationDate,2023-03-15T18:11:01+01:00
; #@! TF.GenerationSoftware,Kicad,Pcbnew,(5.1.10)-1
; #@! TF.FileFunction,Plated,1,2,PTH
FMAT,2
INCH
T1C0.0276
T2C0.0300
T3C0.0394
T4C0.0433
T5C0.0866
%
G90
G05
T1
X4.9885Y-4.5531
X4.9893Y-4.3831
X5.2885Y-4.5531
X5.2893Y-4.3831
X5.4585Y-4.5531
X5.4601Y-4.3831
X5.7585Y-4.5531
X5.7601Y-4.3831
X5.7893Y-3.5231
X6.0893Y-3.5231
X6.1085Y-4.5631
X6.1101Y-4.3931
X6.4085Y-4.5631
X6.4101Y-4.3931
X6.5785Y-4.5631
X6.5793Y-4.3931
X6.8785Y-4.5631
X6.8793Y-4.3931
T2
X3.1104Y-4.4512
X3.1104Y-5.1539
X3.1112Y-3.5012
X3.1112Y-4.2039
X4.6931Y-4.4512
X4.6931Y-5.1531
X4.6939Y-3.5012
X4.6939Y-4.2031
T3
X5.0293Y-3.5431
X5.0893Y-4.9931
X5.0901Y-3.9431
X5.1293Y-3.5431
X5.1878Y-4.9931
X5.1885Y-3.9431
X5.2293Y-3.5431
X5.3293Y-3.5431
X5.5593Y-4.9931
X5.5609Y-3.9431
X5.6493Y-3.5431
X5.6493Y-3.6931
X5.6578Y-4.9931
X5.6593Y-3.9431
X6.2093Y-4.9931
X6.2109Y-3.9531
X6.2293Y-3.5431
X6.3078Y-4.9931
X6.3093Y-3.9531
X6.4993Y-3.5531
X6.5993Y-3.5531
X6.6793Y-4.9931
X6.6801Y-3.9531
X6.6993Y-3.5531
X6.7778Y-4.9931
X6.7785Y-3.9531
X6.7993Y-3.5531
T4
X5.0385Y-4.7152
X5.0393Y-4.221
X5.1385Y-4.7152
X5.1393Y-4.221
X5.2385Y-4.7152
X5.2393Y-4.221
X5.5085Y-4.7152
X5.5101Y-4.221
X5.6085Y-4.7152
X5.6101Y-4.221
X5.7085Y-4.7152
X5.7101Y-4.221
X5.8385Y-3.6531
X5.9385Y-3.6531
X6.0385Y-3.6531
X6.1585Y-4.7202
X6.1601Y-4.231
X6.2585Y-4.7202
X6.2601Y-4.231
X6.3585Y-4.7202
X6.3601Y-4.231
X6.6285Y-4.7202
X6.6293Y-4.231
X6.7285Y-4.7202
X6.7293Y-4.231
X6.8285Y-4.7202
X6.8293Y-4.231
T5
X2.8893Y-3.4631
X2.8893Y-5.1731
X6.9593Y-3.4631
X6.9593Y-5.1731
T0
M30
