%TF.GenerationSoftware,KiCad,Pcbnew,(5.1.10)-1*%
%TF.CreationDate,2023-03-15T18:11:03+01:00*%
%TF.ProjectId,Ender3 Upgrade,456e6465-7233-4205-9570-67726164652e,rev?*%
%TF.SameCoordinates,Original*%
%TF.FileFunction,Copper,L2,Bot*%
%TF.FilePolarity,Positive*%
%FSLAX46Y46*%
G04 Gerber Fmt 4.6, Leading zero omitted, Abs format (unit mm)*
G04 Created by KiCad (PCBNEW (5.1.10)-1) date 2023-03-15 18:11:03*
%MOMM*%
%LPD*%
G01*
G04 APERTURE LIST*
%TA.AperFunction,ComponentPad*%
%ADD10O,1.905000X2.000000*%
%TD*%
%TA.AperFunction,ComponentPad*%
%ADD11R,1.905000X2.000000*%
%TD*%
%TA.AperFunction,ComponentPad*%
%ADD12O,1.400000X1.400000*%
%TD*%
%TA.AperFunction,ComponentPad*%
%ADD13C,1.400000*%
%TD*%
%TA.AperFunction,ComponentPad*%
%ADD14R,1.700000X1.700000*%
%TD*%
%TA.AperFunction,ComponentPad*%
%ADD15O,1.700000X1.700000*%
%TD*%
%TA.AperFunction,ComponentPad*%
%ADD16C,4.400000*%
%TD*%
%TA.AperFunction,ComponentPad*%
%ADD17C,2.000000*%
%TD*%
%TA.AperFunction,ComponentPad*%
%ADD18O,1.700000X2.000000*%
%TD*%
%TA.AperFunction,Conductor*%
%ADD19C,0.250000*%
%TD*%
%TA.AperFunction,Conductor*%
%ADD20C,1.000000*%
%TD*%
G04 APERTURE END LIST*
D10*
%TO.P,TS1,3*%
%TO.N,Net-(JS_Board1-Pad1)*%
X148298927Y-92789187D03*
%TO.P,TS1,2*%
%TO.N,Net-(JS_Power1-Pad1)*%
X150838927Y-92789187D03*
D11*
%TO.P,TS1,1*%
%TO.N,Net-(JS_Control1-Pad1)*%
X153378927Y-92789187D03*
%TD*%
D12*
%TO.P,RS1,2*%
%TO.N,Net-(JS_Board1-Pad1)*%
X147048927Y-89487187D03*
D13*
%TO.P,RS1,1*%
%TO.N,Net-(JS_Control1-Pad1)*%
X154668927Y-89487187D03*
%TD*%
D14*
%TO.P,JS_Power,1*%
%TO.N,Net-(JS_Power1-Pad1)*%
X158224927Y-89995187D03*
%TD*%
%TO.P,JS,1*%
%TO.N,Net-(JS_Control1-Pad1)*%
X143492927Y-93805187D03*
%TD*%
%TO.P,JS_Board,1*%
%TO.N,Net-(JS_Board1-Pad1)*%
X143492927Y-89995187D03*
%TD*%
D15*
%TO.P,J2,4*%
%TO.N,Net-(J2-Pad4)*%
X172702927Y-90249187D03*
%TO.P,J2,3*%
%TO.N,Net-(J2-Pad3)*%
X170162927Y-90249187D03*
%TO.P,J2,2*%
%TO.N,Net-(J2-Pad2)*%
X167622927Y-90249187D03*
D14*
%TO.P,J2,1*%
%TO.N,Net-(J2-Pad1)*%
X165082927Y-90249187D03*
%TD*%
D15*
%TO.P,J1,4*%
%TO.N,Net-(J1-Pad4)*%
X127744927Y-89995187D03*
%TO.P,J1,3*%
%TO.N,Net-(J1-Pad3)*%
X130284927Y-89995187D03*
%TO.P,J1,2*%
%TO.N,Net-(J1-Pad2)*%
X132824927Y-89995187D03*
D14*
%TO.P,J1,1*%
%TO.N,Net-(J1-Pad1)*%
X135364927Y-89995187D03*
%TD*%
D16*
%TO.P,REF\u002A\u002A,1*%
%TO.N,N/C*%
X176766927Y-87963187D03*
%TD*%
%TO.P,REF\u002A\u002A,1*%
%TO.N,N/C*%
X176766927Y-131397187D03*
%TD*%
%TO.P,REF\u002A\u002A,1*%
%TO.N,N/C*%
X73388927Y-131397187D03*
%TD*%
%TO.P,REF\u002A\u002A,1*%
%TO.N,N/C*%
X73388927Y-87963187D03*
%TD*%
D17*
%TO.P,DCDCBC1,4*%
%TO.N,5V*%
X119223927Y-88930187D03*
%TO.P,DCDCBC1,3*%
%TO.N,GND*%
X119223927Y-106759260D03*
%TO.P,DCDCBC1,2*%
%TO.N,+24V*%
X79023927Y-88930187D03*
%TO.P,DCDCBC1,1*%
%TO.N,GNDPWR*%
X79023927Y-106780187D03*
%TD*%
%TO.P,DCDCBC2,4*%
%TO.N,12V*%
X119203740Y-113060114D03*
%TO.P,DCDCBC2,3*%
%TO.N,GND*%
X119203740Y-130889187D03*
%TO.P,DCDCBC2,2*%
%TO.N,+24V*%
X79003740Y-113060114D03*
%TO.P,DCDCBC2,1*%
%TO.N,GNDPWR*%
X79003740Y-130910114D03*
%TD*%
D10*
%TO.P,T8,3*%
%TO.N,GND*%
X156426927Y-119894187D03*
%TO.P,T8,2*%
%TO.N,Net-(C8-Pad1)*%
X158966927Y-119894187D03*
D11*
%TO.P,T8,1*%
%TO.N,Net-(J2-Pad4)*%
X161506927Y-119894187D03*
%TD*%
D10*
%TO.P,T7,3*%
%TO.N,GND*%
X127978927Y-119767187D03*
%TO.P,T7,2*%
%TO.N,Net-(C7-Pad1)*%
X130518927Y-119767187D03*
D11*
%TO.P,T7,1*%
%TO.N,Net-(J1-Pad1)*%
X133058927Y-119767187D03*
%TD*%
D10*
%TO.P,T6,3*%
%TO.N,GND*%
X168364927Y-119894187D03*
%TO.P,T6,2*%
%TO.N,Net-(C6-Pad1)*%
X170904927Y-119894187D03*
D11*
%TO.P,T6,1*%
%TO.N,Net-(J2-Pad3)*%
X173444927Y-119894187D03*
%TD*%
D10*
%TO.P,T5,3*%
%TO.N,GND*%
X139916927Y-119767187D03*
%TO.P,T5,2*%
%TO.N,Net-(C5-Pad1)*%
X142456927Y-119767187D03*
D11*
%TO.P,T5,1*%
%TO.N,Net-(J1-Pad2)*%
X144996927Y-119767187D03*
%TD*%
D10*
%TO.P,T4,3*%
%TO.N,GND*%
X173464927Y-107467187D03*
%TO.P,T4,2*%
%TO.N,Net-(C4-Pad1)*%
X170924927Y-107467187D03*
D11*
%TO.P,T4,1*%
%TO.N,Net-(J2-Pad2)*%
X168384927Y-107467187D03*
%TD*%
D10*
%TO.P,T3,3*%
%TO.N,GND*%
X145036927Y-107213187D03*
%TO.P,T3,2*%
%TO.N,Net-(C3-Pad1)*%
X142496927Y-107213187D03*
D11*
%TO.P,T3,1*%
%TO.N,Net-(J1-Pad3)*%
X139956927Y-107213187D03*
%TD*%
D10*
%TO.P,T2,3*%
%TO.N,GND*%
X161546927Y-107467187D03*
%TO.P,T2,2*%
%TO.N,Net-(C2-Pad1)*%
X159006927Y-107467187D03*
D11*
%TO.P,T2,1*%
%TO.N,Net-(J2-Pad1)*%
X156466927Y-107467187D03*
%TD*%
D10*
%TO.P,T1,3*%
%TO.N,GND*%
X133078927Y-107213187D03*
%TO.P,T1,2*%
%TO.N,Net-(C1-Pad1)*%
X130538927Y-107213187D03*
D11*
%TO.P,T1,1*%
%TO.N,Net-(J1-Pad4)*%
X127998927Y-107213187D03*
%TD*%
D12*
%TO.P,R8,2*%
%TO.N,GND*%
X155156927Y-115903187D03*
D13*
%TO.P,R8,1*%
%TO.N,Net-(J2-Pad4)*%
X162776927Y-115903187D03*
%TD*%
D12*
%TO.P,R7,2*%
%TO.N,GND*%
X126708927Y-115649187D03*
D13*
%TO.P,R7,1*%
%TO.N,Net-(J1-Pad1)*%
X134328927Y-115649187D03*
%TD*%
D12*
%TO.P,R6,2*%
%TO.N,GND*%
X167094927Y-115903187D03*
D13*
%TO.P,R6,1*%
%TO.N,Net-(J2-Pad3)*%
X174714927Y-115903187D03*
%TD*%
D12*
%TO.P,R5,2*%
%TO.N,GND*%
X138646927Y-115649187D03*
D13*
%TO.P,R5,1*%
%TO.N,Net-(J1-Pad2)*%
X146266927Y-115649187D03*
%TD*%
D12*
%TO.P,R4,2*%
%TO.N,GND*%
X174734927Y-111585187D03*
D13*
%TO.P,R4,1*%
%TO.N,Net-(J2-Pad2)*%
X167114927Y-111585187D03*
%TD*%
D12*
%TO.P,R3,2*%
%TO.N,GND*%
X146306927Y-111331187D03*
D13*
%TO.P,R3,1*%
%TO.N,Net-(J1-Pad3)*%
X138686927Y-111331187D03*
%TD*%
D12*
%TO.P,R2,2*%
%TO.N,GND*%
X162816927Y-111585187D03*
D13*
%TO.P,R2,1*%
%TO.N,Net-(J2-Pad1)*%
X155196927Y-111585187D03*
%TD*%
D12*
%TO.P,R1,2*%
%TO.N,GND*%
X134348927Y-111331187D03*
D13*
%TO.P,R1,1*%
%TO.N,Net-(J1-Pad4)*%
X126728927Y-111331187D03*
%TD*%
D18*
%TO.P,C8,2*%
%TO.N,12V*%
X160216927Y-126825187D03*
%TO.P,C8,1*%
%TO.N,Net-(C8-Pad1)*%
%TA.AperFunction,ComponentPad*%
G36*
G01*
X156866927Y-127575187D02*
X156866927Y-126075187D01*
G75*
G02*
X157116927Y-125825187I250000J0D01*
G01*
X158316927Y-125825187D01*
G75*
G02*
X158566927Y-126075187I0J-250000D01*
G01*
X158566927Y-127575187D01*
G75*
G02*
X158316927Y-127825187I-250000J0D01*
G01*
X157116927Y-127825187D01*
G75*
G02*
X156866927Y-127575187I0J250000D01*
G01*
G37*
%TD.AperFunction*%
%TD*%
%TO.P,C7,2*%
%TO.N,5V*%
X131768927Y-126825187D03*
%TO.P,C7,1*%
%TO.N,Net-(C7-Pad1)*%
%TA.AperFunction,ComponentPad*%
G36*
G01*
X128418927Y-127575187D02*
X128418927Y-126075187D01*
G75*
G02*
X128668927Y-125825187I250000J0D01*
G01*
X129868927Y-125825187D01*
G75*
G02*
X130118927Y-126075187I0J-250000D01*
G01*
X130118927Y-127575187D01*
G75*
G02*
X129868927Y-127825187I-250000J0D01*
G01*
X128668927Y-127825187D01*
G75*
G02*
X128418927Y-127575187I0J250000D01*
G01*
G37*
%TD.AperFunction*%
%TD*%
%TO.P,C6,2*%
%TO.N,12V*%
X172154927Y-126825187D03*
%TO.P,C6,1*%
%TO.N,Net-(C6-Pad1)*%
%TA.AperFunction,ComponentPad*%
G36*
G01*
X168804927Y-127575187D02*
X168804927Y-126075187D01*
G75*
G02*
X169054927Y-125825187I250000J0D01*
G01*
X170254927Y-125825187D01*
G75*
G02*
X170504927Y-126075187I0J-250000D01*
G01*
X170504927Y-127575187D01*
G75*
G02*
X170254927Y-127825187I-250000J0D01*
G01*
X169054927Y-127825187D01*
G75*
G02*
X168804927Y-127575187I0J250000D01*
G01*
G37*
%TD.AperFunction*%
%TD*%
%TO.P,C5,2*%
%TO.N,5V*%
X143706927Y-126825187D03*
%TO.P,C5,1*%
%TO.N,Net-(C5-Pad1)*%
%TA.AperFunction,ComponentPad*%
G36*
G01*
X140356927Y-127575187D02*
X140356927Y-126075187D01*
G75*
G02*
X140606927Y-125825187I250000J0D01*
G01*
X141806927Y-125825187D01*
G75*
G02*
X142056927Y-126075187I0J-250000D01*
G01*
X142056927Y-127575187D01*
G75*
G02*
X141806927Y-127825187I-250000J0D01*
G01*
X140606927Y-127825187D01*
G75*
G02*
X140356927Y-127575187I0J250000D01*
G01*
G37*
%TD.AperFunction*%
%TD*%
%TO.P,C4,2*%
%TO.N,12V*%
X169674927Y-100409187D03*
%TO.P,C4,1*%
%TO.N,Net-(C4-Pad1)*%
%TA.AperFunction,ComponentPad*%
G36*
G01*
X173024927Y-99659187D02*
X173024927Y-101159187D01*
G75*
G02*
X172774927Y-101409187I-250000J0D01*
G01*
X171574927Y-101409187D01*
G75*
G02*
X171324927Y-101159187I0J250000D01*
G01*
X171324927Y-99659187D01*
G75*
G02*
X171574927Y-99409187I250000J0D01*
G01*
X172774927Y-99409187D01*
G75*
G02*
X173024927Y-99659187I0J-250000D01*
G01*
G37*
%TD.AperFunction*%
%TD*%
%TO.P,C3,2*%
%TO.N,5V*%
X141246927Y-100155187D03*
%TO.P,C3,1*%
%TO.N,Net-(C3-Pad1)*%
%TA.AperFunction,ComponentPad*%
G36*
G01*
X144596927Y-99405187D02*
X144596927Y-100905187D01*
G75*
G02*
X144346927Y-101155187I-250000J0D01*
G01*
X143146927Y-101155187D01*
G75*
G02*
X142896927Y-100905187I0J250000D01*
G01*
X142896927Y-99405187D01*
G75*
G02*
X143146927Y-99155187I250000J0D01*
G01*
X144346927Y-99155187D01*
G75*
G02*
X144596927Y-99405187I0J-250000D01*
G01*
G37*
%TD.AperFunction*%
%TD*%
%TO.P,C2,2*%
%TO.N,12V*%
X157756927Y-100409187D03*
%TO.P,C2,1*%
%TO.N,Net-(C2-Pad1)*%
%TA.AperFunction,ComponentPad*%
G36*
G01*
X161106927Y-99659187D02*
X161106927Y-101159187D01*
G75*
G02*
X160856927Y-101409187I-250000J0D01*
G01*
X159656927Y-101409187D01*
G75*
G02*
X159406927Y-101159187I0J250000D01*
G01*
X159406927Y-99659187D01*
G75*
G02*
X159656927Y-99409187I250000J0D01*
G01*
X160856927Y-99409187D01*
G75*
G02*
X161106927Y-99659187I0J-250000D01*
G01*
G37*
%TD.AperFunction*%
%TD*%
%TO.P,C1,2*%
%TO.N,5V*%
X129288927Y-100155187D03*
%TO.P,C1,1*%
%TO.N,Net-(C1-Pad1)*%
%TA.AperFunction,ComponentPad*%
G36*
G01*
X132638927Y-99405187D02*
X132638927Y-100905187D01*
G75*
G02*
X132388927Y-101155187I-250000J0D01*
G01*
X131188927Y-101155187D01*
G75*
G02*
X130938927Y-100905187I0J250000D01*
G01*
X130938927Y-99405187D01*
G75*
G02*
X131188927Y-99155187I250000J0D01*
G01*
X132388927Y-99155187D01*
G75*
G02*
X132638927Y-99405187I0J-250000D01*
G01*
G37*
%TD.AperFunction*%
%TD*%
D19*
%TO.N,5V*%
X139165927Y-98074187D02*
X141246927Y-100155187D01*
X143706927Y-126825187D02*
X135373928Y-118492188D01*
X133785917Y-98830177D02*
X133029927Y-98074187D01*
X133029927Y-98074187D02*
X139165927Y-98074187D01*
X135373928Y-100418188D02*
X133785917Y-98830177D01*
X135373928Y-123220186D02*
X135373928Y-118198188D01*
X131768927Y-126825187D02*
X135373928Y-123220186D01*
X135373928Y-118198188D02*
X135373928Y-100418188D01*
X135373928Y-118492188D02*
X135373928Y-118198188D01*
X133029927Y-98074187D02*
X127285927Y-98074187D01*
X127285927Y-98074187D02*
X127246927Y-98113187D01*
X127246927Y-98113187D02*
X129288927Y-100155187D01*
X127207927Y-98074187D02*
X127246927Y-98113187D01*
X127207927Y-98074187D02*
X127187927Y-98074187D01*
X119223927Y-90110187D02*
X119223927Y-88930187D01*
X127187927Y-98074187D02*
X119223927Y-90110187D01*
%TO.N,12V*%
X156660927Y-130381187D02*
X160216927Y-126825187D01*
X127380813Y-130381187D02*
X156660927Y-130381187D01*
X172154927Y-126825187D02*
X168598927Y-130381187D01*
X169674927Y-100409187D02*
X169654927Y-100409187D01*
X166069926Y-128378188D02*
X164066927Y-130381187D01*
X169654927Y-100409187D02*
X166069926Y-103994188D01*
X164066927Y-130381187D02*
X156660927Y-130381187D01*
X168598927Y-130381187D02*
X164066927Y-130381187D01*
X157970927Y-100409187D02*
X166069926Y-108508186D01*
X166069926Y-108508186D02*
X166069926Y-128378188D01*
X157756927Y-100409187D02*
X157970927Y-100409187D01*
X166069926Y-103994188D02*
X166069926Y-108508186D01*
X119203740Y-122204114D02*
X127380813Y-130381187D01*
X119203740Y-113060114D02*
X119203740Y-122204114D01*
%TO.N,GND*%
X150584927Y-111331187D02*
X155156927Y-115903187D01*
X146306927Y-111331187D02*
X150584927Y-111331187D01*
D20*
%TO.N,GNDPWR*%
X79003740Y-130910114D02*
X83040927Y-126872927D01*
X83040927Y-110797187D02*
X79023927Y-106780187D01*
X83040927Y-126872927D02*
X83040927Y-110797187D01*
%TD*%
M02*
