%TF.GenerationSoftware,KiCad,Pcbnew,(5.1.10)-1*%
%TF.CreationDate,2023-03-15T18:11:03+01:00*%
%TF.ProjectId,Ender3 Upgrade,456e6465-7233-4205-9570-67726164652e,rev?*%
%TF.SameCoordinates,Original*%
%TF.FileFunction,Legend,Bot*%
%TF.FilePolarity,Positive*%
%FSLAX46Y46*%
G04 Gerber Fmt 4.6, Leading zero omitted, Abs format (unit mm)*
G04 Created by KiCad (PCBNEW (5.1.10)-1) date 2023-03-15 18:11:03*
%MOMM*%
%LPD*%
G01*
G04 APERTURE LIST*
%ADD10C,0.150000*%
G04 APERTURE END LIST*
D10*
X114320831Y-110259567D02*
X114320831Y-109259567D01*
X113416069Y-110259567D02*
X113416069Y-109259567D01*
X113416069Y-110211948D02*
X113511307Y-110259567D01*
X113701784Y-110259567D01*
X113797022Y-110211948D01*
X113844641Y-110164329D01*
X113892260Y-110069091D01*
X113892260Y-109783377D01*
X113844641Y-109688139D01*
X113797022Y-109640520D01*
X113701784Y-109592901D01*
X113511307Y-109592901D01*
X113416069Y-109640520D01*
X112558927Y-110211948D02*
X112654165Y-110259567D01*
X112844641Y-110259567D01*
X112939879Y-110211948D01*
X112987498Y-110116710D01*
X112987498Y-109735758D01*
X112939879Y-109640520D01*
X112844641Y-109592901D01*
X112654165Y-109592901D01*
X112558927Y-109640520D01*
X112511307Y-109735758D01*
X112511307Y-109830996D01*
X112987498Y-109926234D01*
X111654165Y-110259567D02*
X111654165Y-109735758D01*
X111701784Y-109640520D01*
X111797022Y-109592901D01*
X111987498Y-109592901D01*
X112082736Y-109640520D01*
X111654165Y-110211948D02*
X111749403Y-110259567D01*
X111987498Y-110259567D01*
X112082736Y-110211948D01*
X112130355Y-110116710D01*
X112130355Y-110021472D01*
X112082736Y-109926234D01*
X111987498Y-109878615D01*
X111749403Y-109878615D01*
X111654165Y-109830996D01*
X111320831Y-109592901D02*
X110939879Y-109592901D01*
X111177974Y-109259567D02*
X111177974Y-110116710D01*
X111130355Y-110211948D01*
X111035117Y-110259567D01*
X110939879Y-110259567D01*
X110225593Y-110211948D02*
X110320831Y-110259567D01*
X110511307Y-110259567D01*
X110606546Y-110211948D01*
X110654165Y-110116710D01*
X110654165Y-109735758D01*
X110606546Y-109640520D01*
X110511307Y-109592901D01*
X110320831Y-109592901D01*
X110225593Y-109640520D01*
X110177974Y-109735758D01*
X110177974Y-109830996D01*
X110654165Y-109926234D01*
X109320831Y-110259567D02*
X109320831Y-109259567D01*
X109320831Y-110211948D02*
X109416069Y-110259567D01*
X109606546Y-110259567D01*
X109701784Y-110211948D01*
X109749403Y-110164329D01*
X109797022Y-110069091D01*
X109797022Y-109783377D01*
X109749403Y-109688139D01*
X109701784Y-109640520D01*
X109606546Y-109592901D01*
X109416069Y-109592901D01*
X109320831Y-109640520D01*
X107654165Y-110259567D02*
X107654165Y-109735758D01*
X107701784Y-109640520D01*
X107797022Y-109592901D01*
X107987498Y-109592901D01*
X108082736Y-109640520D01*
X107654165Y-110211948D02*
X107749403Y-110259567D01*
X107987498Y-110259567D01*
X108082736Y-110211948D01*
X108130355Y-110116710D01*
X108130355Y-110021472D01*
X108082736Y-109926234D01*
X107987498Y-109878615D01*
X107749403Y-109878615D01*
X107654165Y-109830996D01*
X107177974Y-109592901D02*
X107177974Y-110259567D01*
X107177974Y-109688139D02*
X107130355Y-109640520D01*
X107035117Y-109592901D01*
X106892260Y-109592901D01*
X106797022Y-109640520D01*
X106749403Y-109735758D01*
X106749403Y-110259567D01*
X105844641Y-110259567D02*
X105844641Y-109259567D01*
X105844641Y-110211948D02*
X105939879Y-110259567D01*
X106130355Y-110259567D01*
X106225593Y-110211948D01*
X106273212Y-110164329D01*
X106320831Y-110069091D01*
X106320831Y-109783377D01*
X106273212Y-109688139D01*
X106225593Y-109640520D01*
X106130355Y-109592901D01*
X105939879Y-109592901D01*
X105844641Y-109640520D01*
X104606546Y-110259567D02*
X104606546Y-109259567D01*
X104368450Y-109259567D01*
X104225593Y-109307187D01*
X104130355Y-109402425D01*
X104082736Y-109497663D01*
X104035117Y-109688139D01*
X104035117Y-109830996D01*
X104082736Y-110021472D01*
X104130355Y-110116710D01*
X104225593Y-110211948D01*
X104368450Y-110259567D01*
X104606546Y-110259567D01*
X103225593Y-110211948D02*
X103320831Y-110259567D01*
X103511307Y-110259567D01*
X103606546Y-110211948D01*
X103654165Y-110116710D01*
X103654165Y-109735758D01*
X103606546Y-109640520D01*
X103511307Y-109592901D01*
X103320831Y-109592901D01*
X103225593Y-109640520D01*
X103177974Y-109735758D01*
X103177974Y-109830996D01*
X103654165Y-109926234D01*
X102797022Y-110211948D02*
X102701784Y-110259567D01*
X102511307Y-110259567D01*
X102416069Y-110211948D01*
X102368450Y-110116710D01*
X102368450Y-110069091D01*
X102416069Y-109973853D01*
X102511307Y-109926234D01*
X102654165Y-109926234D01*
X102749403Y-109878615D01*
X102797022Y-109783377D01*
X102797022Y-109735758D01*
X102749403Y-109640520D01*
X102654165Y-109592901D01*
X102511307Y-109592901D01*
X102416069Y-109640520D01*
X101939879Y-110259567D02*
X101939879Y-109592901D01*
X101939879Y-109259567D02*
X101987498Y-109307187D01*
X101939879Y-109354806D01*
X101892260Y-109307187D01*
X101939879Y-109259567D01*
X101939879Y-109354806D01*
X101035117Y-109592901D02*
X101035117Y-110402425D01*
X101082736Y-110497663D01*
X101130355Y-110545282D01*
X101225593Y-110592901D01*
X101368450Y-110592901D01*
X101463688Y-110545282D01*
X101035117Y-110211948D02*
X101130355Y-110259567D01*
X101320831Y-110259567D01*
X101416069Y-110211948D01*
X101463688Y-110164329D01*
X101511307Y-110069091D01*
X101511307Y-109783377D01*
X101463688Y-109688139D01*
X101416069Y-109640520D01*
X101320831Y-109592901D01*
X101130355Y-109592901D01*
X101035117Y-109640520D01*
X100558927Y-109592901D02*
X100558927Y-110259567D01*
X100558927Y-109688139D02*
X100511307Y-109640520D01*
X100416069Y-109592901D01*
X100273212Y-109592901D01*
X100177974Y-109640520D01*
X100130355Y-109735758D01*
X100130355Y-110259567D01*
X99273212Y-110211948D02*
X99368450Y-110259567D01*
X99558927Y-110259567D01*
X99654165Y-110211948D01*
X99701784Y-110116710D01*
X99701784Y-109735758D01*
X99654165Y-109640520D01*
X99558927Y-109592901D01*
X99368450Y-109592901D01*
X99273212Y-109640520D01*
X99225593Y-109735758D01*
X99225593Y-109830996D01*
X99701784Y-109926234D01*
X98368450Y-110259567D02*
X98368450Y-109259567D01*
X98368450Y-110211948D02*
X98463688Y-110259567D01*
X98654165Y-110259567D01*
X98749403Y-110211948D01*
X98797022Y-110164329D01*
X98844641Y-110069091D01*
X98844641Y-109783377D01*
X98797022Y-109688139D01*
X98749403Y-109640520D01*
X98654165Y-109592901D01*
X98463688Y-109592901D01*
X98368450Y-109640520D01*
X97130355Y-110259567D02*
X97130355Y-109259567D01*
X97130355Y-109640520D02*
X97035117Y-109592901D01*
X96844641Y-109592901D01*
X96749403Y-109640520D01*
X96701784Y-109688139D01*
X96654165Y-109783377D01*
X96654165Y-110069091D01*
X96701784Y-110164329D01*
X96749403Y-110211948D01*
X96844641Y-110259567D01*
X97035117Y-110259567D01*
X97130355Y-110211948D01*
X96320831Y-109592901D02*
X96082736Y-110259567D01*
X95844641Y-109592901D02*
X96082736Y-110259567D01*
X96177974Y-110497663D01*
X96225593Y-110545282D01*
X96320831Y-110592901D01*
X94749403Y-109973853D02*
X94273212Y-109973853D01*
X94844641Y-110259567D02*
X94511307Y-109259567D01*
X94177974Y-110259567D01*
X93701784Y-110259567D02*
X93797022Y-110211948D01*
X93844641Y-110116710D01*
X93844641Y-109259567D01*
X93320831Y-110259567D02*
X93320831Y-109259567D01*
X93320831Y-109640520D02*
X93225593Y-109592901D01*
X93035117Y-109592901D01*
X92939879Y-109640520D01*
X92892260Y-109688139D01*
X92844641Y-109783377D01*
X92844641Y-110069091D01*
X92892260Y-110164329D01*
X92939879Y-110211948D01*
X93035117Y-110259567D01*
X93225593Y-110259567D01*
X93320831Y-110211948D01*
X92035117Y-110211948D02*
X92130355Y-110259567D01*
X92320831Y-110259567D01*
X92416069Y-110211948D01*
X92463688Y-110116710D01*
X92463688Y-109735758D01*
X92416069Y-109640520D01*
X92320831Y-109592901D01*
X92130355Y-109592901D01*
X92035117Y-109640520D01*
X91987498Y-109735758D01*
X91987498Y-109830996D01*
X92463688Y-109926234D01*
X91558927Y-110259567D02*
X91558927Y-109592901D01*
X91558927Y-109783377D02*
X91511307Y-109688139D01*
X91463688Y-109640520D01*
X91368450Y-109592901D01*
X91273212Y-109592901D01*
X91082736Y-109592901D02*
X90701784Y-109592901D01*
X90939879Y-109259567D02*
X90939879Y-110116710D01*
X90892260Y-110211948D01*
X90797022Y-110259567D01*
X90701784Y-110259567D01*
X90225593Y-110259567D02*
X90320831Y-110211948D01*
X90368450Y-110164329D01*
X90416069Y-110069091D01*
X90416069Y-109783377D01*
X90368450Y-109688139D01*
X90320831Y-109640520D01*
X90225593Y-109592901D01*
X90082736Y-109592901D01*
X89987498Y-109640520D01*
X89939879Y-109688139D01*
X89892260Y-109783377D01*
X89892260Y-110069091D01*
X89939879Y-110164329D01*
X89987498Y-110211948D01*
X90082736Y-110259567D01*
X90225593Y-110259567D01*
X88130355Y-110259567D02*
X88463688Y-109783377D01*
X88701784Y-110259567D02*
X88701784Y-109259567D01*
X88320831Y-109259567D01*
X88225593Y-109307187D01*
X88177974Y-109354806D01*
X88130355Y-109450044D01*
X88130355Y-109592901D01*
X88177974Y-109688139D01*
X88225593Y-109735758D01*
X88320831Y-109783377D01*
X88701784Y-109783377D01*
X87558927Y-110259567D02*
X87654165Y-110211948D01*
X87701784Y-110164329D01*
X87749403Y-110069091D01*
X87749403Y-109783377D01*
X87701784Y-109688139D01*
X87654165Y-109640520D01*
X87558927Y-109592901D01*
X87416069Y-109592901D01*
X87320831Y-109640520D01*
X87273212Y-109688139D01*
X87225593Y-109783377D01*
X87225593Y-110069091D01*
X87273212Y-110164329D01*
X87320831Y-110211948D01*
X87416069Y-110259567D01*
X87558927Y-110259567D01*
X86939879Y-109592901D02*
X86558927Y-109592901D01*
X86797022Y-109259567D02*
X86797022Y-110116710D01*
X86749403Y-110211948D01*
X86654165Y-110259567D01*
X86558927Y-110259567D01*
X85797022Y-110259567D02*
X85797022Y-109735758D01*
X85844641Y-109640520D01*
X85939879Y-109592901D01*
X86130355Y-109592901D01*
X86225593Y-109640520D01*
X85797022Y-110211948D02*
X85892260Y-110259567D01*
X86130355Y-110259567D01*
X86225593Y-110211948D01*
X86273212Y-110116710D01*
X86273212Y-110021472D01*
X86225593Y-109926234D01*
X86130355Y-109878615D01*
X85892260Y-109878615D01*
X85797022Y-109830996D01*
M02*
